<?xml version="1.0" encoding="UTF-8"?><svg id="Layer_1" xmlns="http://www.w3.org/2000/svg" viewBox="0 0 798.58 1434.12"><defs><style>.cls-1{fill:#ed814f;}</style></defs><path class="cls-1" d="M2.78,661.55c12.39-42.95,21.53-53.62,24.48-106.28,.59-10.48-2.12-30.54-2.09-41.04,.08-23.93,17.92-56.69,43.75-85.15,13.63-15.02,37.91-18.63,61.16-7.75,11.09,5.19,20.04,12.74,27.35,22.93,2.45,3.41,7.59,3.07,9.41-.72,4.46-9.3,20.77-20,24.59-28.86,.83-1.92-1.79-26.54-6.81-35.22-3.72-6.43-29.18-8.79-37.92-9.73-3.51-.37-6.76-2.78-10.23-3.97-18.23-6.23-29.96-21.4-44.64-32.48-14.33-10.82-33.84-28.14-36.18-49.57-6.48-59.23-19-103.77,36.27-150.99,9.68-8.27,59.94-26.43,84.08-31.82,16.06-3.58,61.38-7.97,116.3-24.6,18.39-5.57,58.59-20.15,74.26-30.27,25.74-16.62,50.84-33.78,66.16-40.12,14.63-6.05,57.31-8.15,80.4-3.07,24.62,5.42,32.89,3.45,56.29,32.05,6.78,8.29,7.94,9.9,11.65,20.89,10.25,30.42,7.29,44.96,5.89,64.52-.98,13.31-.52,14.75-2.62,27.77-9.39,58.33-20.85,74.69-38.1,82.56-7.14,3.26,.64,29.43,2.09,39.11,1.68,11.22,.95,21.13,8.61,44.56,1.3,3.98,4.28,8.98,8.03,10.82,24.29,11.94,47.5,25.68,68.96,42.21,13.83,10.64,25.89,18.61,38.62,35.16,11.01,14.31,23,28.41,30.33,44.9,8.15,18.34,8.39,22.35,9.95,41.43,.56,6.93-.56,14.2,1.18,20.77,4.82,18.11,11.07,35.81,16.02,53.87,3.38,12.42,7.94,24.96,7.94,37.83,0,5.99-.43,10.89-.83,17.08-.35,5.48,4.65,4.42,9.92,3.75,3.89-.5,10.84-6.4,10.3-5.82-7.71,8.31-8.08,7.72-10.22,9.46-7.5,6.09-13.92,5.92,.95,27.56,4.84,7.04,48.31,68.67,48.31,68.67,3.66,5.33,2.64,12.37-2.04,16.85-5.6,5.37-10.55,12.07-17.2,15.37-14.2,7-20.57,21.39-16.06,36.81,5.34,18.25-.39,19.93-3.67,22.67-9.2,7.66-7.34,5.94,0,16.27,.84,1.18,1.02,3.32,1.02,4.77,0,6.25-3.8,12.5-11.5,16.73-.59,.32-1.62,.66-2.13,1.09-7.36,6.17-10.91,13.41-12.66,22.55-5.66,29.57-20.9,51.61-51.88,57.5-18.03,3.43-36.74,3.49-55.16,4.26-17.04,.71-30.13,7.92-39.56,21.75-12.59,18.5-20.12,39.63-23.26,61.18-3.92,26.99-3.67,54.6-5.01,81.97-.34,6.77,24.79,30.03,29.24,42.22,2.39,6.55,61.56,167.9,79.12,210.66,33.61,81.85,32.28,77.89,18.86,79.43-9.32,1.07-95.09-39.86-137.16-66.88-35.92-23.07-66.47-44.55-99.99-71-24.43-19.27-49.43-33.31-74.26-52.13-20.87-15.81-37.45-24.28-73.17-24.28-16.72,0-32.1,5.48-48.11,10.53-6.43,2.02-12.75,4.37-19.57,6.92-4.48,1.67-8.84-2.65-7.26-7.16,19.2-54.84,38.25-100.92,58.9-153.5,1.02-2.6,5.7-9.45,8.46-8.99,.04,0,.08-.52,.1-.55,4.33-4.94,12.28-20.76,14.06-26.42,3.56-11.33,20.74-84.5,10.54-129.17-2.01-8.81-2.77-10.04-7.54-16-4.65-5.8-18.54-15.9-27.15-15.03-15.25,1.54-39.87-3.37-56.98-18.72-22.08-19.8-42.75-22.43-54.65-40.69-34.09-52.31-26.57-75.39-29.19-73.19-34.02,28.39-44.85,28.63-60.74,26.61C18.01,766.48-2.13,713.11,.17,684.78"/></svg>