<?xml version="1.0" encoding="UTF-8"?><svg id="Layer_2" xmlns="http://www.w3.org/2000/svg" viewBox="0 0 1475.62 1475.9"><defs><style>.cls-1{fill:#fefefe;}.cls-2{fill:#fe7700;}</style></defs><g id="Layer_3"><g><path class="cls-1" d="M791.77,1474.55c-214.2,11.79-404.29-53.02-562.74-202.89C101.02,1150.57,25.26,1000.97,5.44,825.86-20.47,596.91,46.22,396.25,204.22,228.53,328.05,97.08,481.92,21.22,661.87,3.95c224.81-21.58,421.65,45.21,585.88,200.67,126.46,119.7,201.27,267.67,221.91,440.8,24.77,207.85-27.44,395.61-160.01,558.11-132.69,162.64-306.32,250.53-517.88,271.01Zm-206.51-689.75c.14-.77,.27-1.55,.41-2.32,1.16-.06,2.32-.16,3.48-.16,143.96,.01,287.92,.02,431.87,.05,12.92,0,23.96-4.57,32.8-13.92,9.2-9.74,11.95-21.59,11.31-34.79-.43-8.88-3.62-16.46-8.67-23.3-9.37-12.68-22.96-17.5-37.95-17.52-142.46-.19-284.92-.11-427.37-.16-1.85,0-3.71-.67-5.56-1.03,.02-.37,.04-.74,.05-1.11,.3-.58,.47-1.29,.91-1.73,13.42-13.36,26.91-26.65,40.31-40.03,28.44-28.41,56.83-56.88,85.27-85.3,6.02-6.01,9.77-13.55,10.44-21.59,.63-7.48,1.3-15.17-1.37-22.97-2.67-7.84-6.6-14.35-12.48-19.77-6.92-6.37-15.2-8.94-24.68-9.94-9.03-.95-17.49,0-25.09,4.07-6.29,3.37-12.01,8.25-17.11,13.33-76.64,76.47-153.14,153.08-229.6,229.73-.62,.63-.83,2.74-.32,3.26,10.14,10.32,20.41,20.52,30.66,30.73,45.83,45.67,91.67,91.33,137.5,137,23.31,23.23,46.33,46.77,70.17,69.45,5.41,5.14,13.34,8.74,20.7,10.4,6.92,1.56,14.53,.89,21.93-1.76,16.38-5.88,26.88-17.16,29.66-33.76,2.6-15.51-.6-30.05-12.89-42.12-38.11-37.44-75.69-75.42-113.45-113.21-3.75-3.75-7.3-7.7-10.94-11.55Z"/><path class="cls-2" d="M585.56,691.65c1.85,.36,3.71,1.03,5.56,1.03,142.46,.05,284.92-.03,427.37,.16,14.99,.02,28.58,4.84,37.95,17.52,5.05,6.84,8.24,14.42,8.67,23.3,.65,13.2-2.1,25.06-11.31,34.79-8.84,9.35-19.87,13.92-32.8,13.92-143.96-.03-287.92-.04-431.87-.05-1.16,0-2.32,.11-3.48,.16-.14,.77-.27,1.55-.41,2.32,3.64,3.85,7.2,7.8,10.94,11.55,37.76,37.8,75.34,75.78,113.45,113.21,12.29,12.07,15.49,26.61,12.89,42.12-2.79,16.6-13.28,27.88-29.66,33.76-7.4,2.65-15.01,3.32-21.93,1.76-7.37-1.66-15.29-5.26-20.7-10.4-23.84-22.68-46.86-46.22-70.17-69.45-45.83-45.67-91.67-91.33-137.5-137-10.25-10.21-20.52-20.41-30.66-30.73-.51-.52-.3-2.64,.32-3.26,76.46-76.65,152.96-153.26,229.6-229.73,5.1-5.09,10.82-9.97,17.11-13.33,7.6-4.07,16.06-5.02,25.09-4.07,9.48,.99,17.77,3.56,24.68,9.94,5.88,5.42,9.81,11.93,12.48,19.77,2.66,7.81,1.99,15.49,1.37,22.97-.68,8.04-4.43,15.58-10.44,21.59-28.44,28.41-56.83,56.89-85.27,85.3-13.4,13.38-26.89,26.67-40.31,40.03-.44,.44-.61,1.15-.91,1.73-.09,.11-.28,.23-.27,.33,.03,.26,.14,.52,.21,.78Z"/></g></g></svg>