<?xml version="1.0" encoding="UTF-8"?><svg id="Layer_2" xmlns="http://www.w3.org/2000/svg" viewBox="0 0 1475.33 1475.78"><defs><style>.cls-1{fill:#fefefe;}.cls-2{fill:#315a9b;}</style></defs><g id="Layer_3"><g><path class="cls-2" d="M708.59,0c436.89,.91,751.49,324.94,766.09,704.21,8.31,215.82-63.02,402.4-215.41,555.34-143.99,144.52-320.34,216.95-524.36,216.22-202.11-.72-376.28-73.77-519.27-216.6C78.66,1122.33,6.09,955.18,.37,761.93-5.89,550.01,66.65,366.45,216.69,216.18,360,72.66,535.46,2.99,708.59,0Zm-111.86,1231.06c.66,.05,1.32,.16,1.98,.16,61,0,121.99,.01,182.99,0,1.25,0,2.51-.26,3.92-.41,0-2.55,0-4.7,0-6.86,0-150,0-300,0-450,0-7.11,.09-7.22,7.25-7.22,38,0,75.99,0,113.99,0,1.9,0,3.81,0,5.36,0,.54-4.26,.83-7.69,1.43-11.06,.51-2.87,1.78-5.64,2.01-8.51,.35-4.3,.03-8.66,.13-12.99,.03-1.43,.35-2.89,.73-4.28,.69-2.57,1.92-5.07,2.19-7.67,.37-3.63,.05-7.32,.05-10.99,0-3.33-1.34-8.22,.33-9.7,4.6-4.08,2.27-8.72,2.57-13.01,.93-12.95,1.42-25.92,2.12-38.88,.04-.79,.21-1.64,.56-2.34,.73-1.49,2.08-2.83,2.34-4.38,1.46-8.47-2.36-17.3,2.76-25.76,1.82-3.01,.29-8.04,.29-12.47h-5.84c-43.5,0-86.99,0-130.49,0-6.24,0-7.78-1.57-7.78-7.81,0-23,0-46,0-69,0-7.33-1.9-15.4,.56-21.8,2.52-6.56-.08-13.36,4.05-19.97,3.06-4.88,5.42-10.67,9.54-14.67,8.58-8.33,20.29-10.38,31.38-10.66,31.14-.8,62.32-.28,93.49-.29,1.76,0,3.51,0,5.34,0v-155.65c-1.79-.08-3.26-.21-4.73-.2-56.14,.15-112.27,.3-168.41,.47-1.15,0-3.03-.18-3.34,.39-2.13,3.98-5.78,2.11-8.81,2.67-3.62,.67-6.99-.19-11.04,2.17-3.68,2.14-9.79,2.07-14.7,3.72-6.76,2.28-13.71,4.05-20.36,6.62-4.22,1.63-7.84,4.86-12.08,6.41-11.2,4.08-19.85,11.98-29.14,18.87-3.94,2.92-7.03,6.97-10.71,10.27-2.78,2.49-5.94,4.49-7.01,8.47-.42,1.56-1.33,3.68-2.58,4.2-7.82,3.3-9.58,11.61-13.88,17.49-5.24,7.17-7.62,16.46-11.09,24.89-2.52,6.12-5.18,12.22-7.12,18.54-2.41,7.87-4.55,15.87-6.06,23.96-1.49,7.96-2.81,16.09-2.88,24.16-.35,39.66-.26,79.33-.32,119q-.01,7.64-7.35,7.64c-25.83,0-51.66,0-77.49,0-1.95,0-3.9,0-5.85,0v162.19h5.78c26,0,52-.01,77.99,.02,1.98,0,3.96,.31,5.94,.48,.28,.32,.56,.63,.84,.95,.05,2,.13,3.99,.13,5.99,0,141.2,0,282.41,.01,423.61,0,10.82,.11,21.64,.17,32.46,.28,.28,.56,.56,.84,.83Z"/><path class="cls-1" d="M594.74,767.22c-1.98-.17-3.96-.48-5.94-.48-26-.03-52-.02-77.99-.02h-5.78v-162.19c1.95,0,3.9,0,5.85,0,25.83,0,51.66,0,77.49,0q7.34,0,7.35-7.64c.06-39.67-.03-79.33,.32-119,.07-8.07,1.4-16.2,2.88-24.16,1.51-8.09,3.64-16.09,6.06-23.96,1.94-6.31,4.6-12.42,7.12-18.54,3.47-8.43,5.85-17.72,11.09-24.89,4.3-5.88,6.06-14.19,13.88-17.49,1.25-.53,2.17-2.65,2.58-4.2,1.07-3.98,4.23-5.98,7.01-8.47,3.68-3.3,6.77-7.35,10.71-10.27,9.3-6.89,17.94-14.79,29.14-18.87,4.24-1.54,7.86-4.78,12.08-6.41,6.65-2.57,13.6-4.34,20.36-6.62,4.91-1.66,11.02-1.58,14.7-3.72,4.05-2.36,7.43-1.5,11.04-2.17,3.03-.56,6.68,1.31,8.81-2.67,.3-.57,2.18-.38,3.34-.39,56.14-.17,112.27-.33,168.41-.47,1.47,0,2.94,.12,4.73,.2v155.65c-1.82,0-3.58,0-5.34,0-31.16,0-62.34-.51-93.49,.29-11.09,.28-22.8,2.33-31.38,10.66-4.12,4-6.49,9.79-9.54,14.67-4.13,6.61-1.53,13.42-4.05,19.97-2.46,6.39-.56,14.46-.56,21.8,0,23,0,46,0,69,0,6.24,1.55,7.81,7.78,7.81,43.5,0,86.99,0,130.49,0h5.84c0,4.43,1.53,9.46-.29,12.47-5.13,8.46-1.3,17.29-2.76,25.76-.27,1.55-1.62,2.88-2.34,4.38-.34,.71-.52,1.55-.56,2.34-.69,12.96-1.19,25.94-2.12,38.88-.31,4.3,2.03,8.93-2.57,13.01-1.67,1.48-.33,6.37-.33,9.7,0,3.67,.32,7.36-.05,10.99-.27,2.6-1.5,5.1-2.19,7.67-.37,1.39-.69,2.85-.73,4.28-.09,4.33,.23,8.69-.13,12.99-.23,2.87-1.5,5.65-2.01,8.51-.6,3.37-.9,6.8-1.43,11.06-1.56,0-3.46,0-5.36,0-38,0-75.99,0-113.99,0-7.16,0-7.25,.11-7.25,7.22,0,150,0,300,0,450,0,2.16,0,4.31,0,6.86-1.41,.16-2.67,.41-3.92,.41-61,.02-121.99,.02-182.99,0-.66,0-1.32-.1-1.98-.16-.28-.28-.56-.56-.84-.83-.06-10.82-.16-21.64-.17-32.46-.01-141.2,0-282.41-.01-423.61,0-2-.09-3.99-.13-5.99-.28-.32-.56-.63-.84-.95Z"/></g></g></svg>