<?xml version="1.0" encoding="UTF-8"?><svg id="Layer_2" xmlns="http://www.w3.org/2000/svg" viewBox="0 0 1476.1 1476.21"><defs><style>.cls-1{fill:#fd3a11;}.cls-2{fill:#fefefd;}</style></defs><g id="Layer_3"><g><path class="cls-1" d="M1476.1,738.22c-.02,408.11-330.73,738.13-739.54,737.98C329.9,1476.06-.16,1144.92,0,737.24,.16,329.79,331.15-.28,739.29,0c406.71,.27,736.82,331.02,736.81,738.22Zm-451.23-331.57c-4.09-3.49-8.42-7.36-12.93-11-30.52-24.61-63.19-45.9-99.24-61.42-19.15-8.24-38.72-16.03-58.79-21.52-21.88-5.98-44.41-10.14-66.92-13.08-19.07-2.49-38.51-2.8-57.79-2.78-15.44,.02-30.95,1.42-46.31,3.22-16.48,1.93-33.05,4.06-49.17,7.87-18.04,4.27-35.75,10.07-53.34,16-28.69,9.67-55.86,22.67-81.7,38.53-38.91,23.9-73.29,53.1-102.66,88.02-25.91,30.82-47.21,64.67-62.96,101.77-7.31,17.22-14.29,34.72-19.57,52.63-5.58,18.89-9.57,38.32-13.11,57.72-2.92,16-5.22,32.26-5.98,48.5-2.17,45.96,1.35,91.53,13.54,136.07,5.25,19.17,11.04,38.27,18.08,56.84,10.72,28.31,25.05,54.88,41.86,80.14,14.82,22.25,31.3,43.09,50.23,61.93,29.05,28.91,61.1,53.94,97.55,72.87,17.04,8.85,34.47,17.13,52.27,24.32,16.1,6.5,32.83,11.56,49.51,16.5,11.44,3.39,23.18,6.01,34.95,8.02,14.74,2.51,29.61,4.61,44.51,5.83,17.24,1.42,34.57,2.29,51.86,2.31,21.98,.03,43.92-1.72,65.6-5.66,13.87-2.52,27.86-4.76,41.47-8.35,13.6-3.59,26.86-8.53,40.14-13.22,21.96-7.76,42.72-18.14,62.65-30.1,20.86-12.52,40.28-27.01,58.66-43.02,28.35-24.69,52.66-52.83,72.51-84.64,18.5-29.64,33.92-60.91,43.86-94.56,4.89-16.54,9.96-33.1,13.32-49.98,3.72-18.71,5.83-37.77,8.21-56.73,3.29-26.23,2.7-52.6,.93-78.87-1.19-17.71-3.97-35.33-6.25-52.96-.89-6.92-1.73-7.36-8.53-7.36-132.33,0-264.67,.02-397-.1-3.92,0-5.17,.82-5.15,4.9,.14,52.5,.1,105.01,.11,157.51,0,2,.02,4-.04,6-.08,2.53,.89,3.37,3.58,3.35,20.16-.15,40.33-.13,60.5-.14,58.17-.01,116.33,0,174.5,0,6.35,0,7.02,.74,5.44,7.07-1.24,4.98-2.78,9.89-4.31,14.79-6.08,19.44-14.58,37.79-26,54.65-32.7,48.27-78.37,79.27-132.85,97.8-24.67,8.39-50.39,12.02-76.54,12.26-25.46,.23-50.52-2.82-74.83-10.15-15.04-4.53-29.75-10.39-44.25-16.48-24.87-10.45-47.05-25.48-67.22-43.21-30.75-27.02-53.15-60.11-69.05-97.79-11.68-27.67-18.5-56.43-20.72-86.3-2.56-34.43,1.52-68.13,12.36-100.88,8.16-24.67,19.06-48.1,33.38-69.89,18.29-27.85,40.31-52.12,68.14-70.67,23.6-15.73,48.96-27.66,76.34-35.6,18.14-5.26,36.45-9.42,55.15-10.75,21.71-1.55,43.48-2.03,65.24,1.71,18.78,3.23,37.05,8.11,54.44,15.47,24.39,10.33,47.05,23.9,67.21,41.32,1.33,1.15,2.84,2.08,4.89,3.56,40.22-40.9,80.13-81.48,120.25-122.27Z"/><path class="cls-2" d="M1024.87,406.65c-40.12,40.79-80.03,81.38-120.25,122.27-2.05-1.49-3.57-2.42-4.89-3.56-20.16-17.42-42.82-30.99-67.21-41.32-17.38-7.36-35.66-12.25-54.44-15.47-21.75-3.74-43.52-3.26-65.24-1.71-18.7,1.34-37.02,5.5-55.15,10.75-27.38,7.94-52.74,19.87-76.34,35.6-27.83,18.55-49.85,42.82-68.14,70.67-14.32,21.79-25.22,45.22-33.38,69.89-10.84,32.75-14.92,66.46-12.36,100.88,2.22,29.87,9.04,58.63,20.72,86.3,15.9,37.67,38.3,70.76,69.05,97.79,20.17,17.73,42.34,32.75,67.22,43.21,14.51,6.1,29.21,11.95,44.25,16.48,24.32,7.33,49.38,10.38,74.83,10.15,26.15-.24,51.87-3.87,76.54-12.26,54.48-18.52,100.15-49.53,132.85-97.8,11.42-16.86,19.93-35.2,26-54.65,1.53-4.9,3.07-9.81,4.31-14.79,1.58-6.32,.91-7.07-5.44-7.07-58.17,0-116.33,0-174.5,0-20.17,0-40.33-.02-60.5,.14-2.68,.02-3.66-.82-3.58-3.35,.07-2,.04-4,.04-6,0-52.5,.03-105.01-.11-157.51-.01-4.08,1.24-4.9,5.15-4.9,132.33,.12,264.67,.1,397,.1,6.8,0,7.64,.43,8.53,7.36,2.28,17.63,5.06,35.24,6.25,52.96,1.77,26.27,2.35,52.64-.93,78.87-2.38,18.96-4.48,38.01-8.21,56.73-3.36,16.88-8.43,33.45-13.32,49.98-9.95,33.66-25.37,64.92-43.86,94.56-19.85,31.81-44.16,59.95-72.51,84.64-18.38,16.01-37.8,30.5-58.66,43.02-19.93,11.96-40.69,22.34-62.65,30.1-13.28,4.69-26.54,9.63-40.14,13.22-13.61,3.6-27.59,5.83-41.47,8.35-21.68,3.94-43.61,5.69-65.6,5.66-17.29-.02-34.62-.89-51.86-2.31-14.9-1.23-29.76-3.32-44.51-5.83-11.77-2-23.51-4.63-34.95-8.02-16.68-4.94-33.41-10-49.51-16.5-17.8-7.19-35.22-15.47-52.27-24.32-36.45-18.92-68.51-43.96-97.55-72.87-18.93-18.84-35.42-39.67-50.23-61.93-16.82-25.26-31.14-51.83-41.86-80.14-7.03-18.57-12.83-37.67-18.08-56.84-12.19-44.54-15.72-90.11-13.54-136.07,.77-16.23,3.06-32.49,5.98-48.5,3.54-19.4,7.54-38.83,13.11-57.72,5.29-17.91,12.26-35.41,19.57-52.63,15.75-37.1,37.04-70.95,62.96-101.77,29.37-34.93,63.75-64.12,102.66-88.02,25.83-15.87,53.01-28.87,81.7-38.53,17.59-5.93,35.31-11.74,53.34-16,16.12-3.81,32.69-5.94,49.17-7.87,15.36-1.79,30.86-3.2,46.31-3.22,19.28-.02,38.72,.29,57.79,2.78,22.51,2.94,45.04,7.1,66.92,13.08,20.07,5.49,39.63,13.27,58.79,21.52,36.05,15.52,68.72,36.81,99.24,61.42,4.51,3.64,8.84,7.51,12.93,11Z"/></g></g></svg>