<?xml version="1.0" encoding="UTF-8"?><svg id="Layer_2" xmlns="http://www.w3.org/2000/svg" viewBox="0 0 1464.74 1267.7"><defs><style>.cls-1{fill:#fd3b12;}.cls-2{fill:#fdfdfd;}</style></defs><g id="Layer_3"><g><path class="cls-2" d="M0,409.18c1.69-17.19,3.56-38.39,5.9-59.54,2.42-21.84,8.03-43.04,14.6-63.94,8.34-26.52,19.57-51.85,32.96-76.23,24.91-45.35,57.61-84.39,97.27-117.39,20.59-17.13,42.65-32.51,66.52-44.85,20.81-10.75,42.11-20.65,64.77-26.93,20.62-5.71,41.24-12.14,62.31-15.31,27.6-4.16,55.57-6.68,83.64-3.7,17.69,1.88,35.48,2.92,53.08,5.38,11.46,1.6,22.74,4.74,33.94,7.77,12.15,3.28,24.36,6.58,36.1,11.05,17.03,6.48,33.98,13.37,50.4,21.25,33.32,15.98,63.75,36.56,91.45,61,12.36,10.9,24.05,22.58,35.78,34.17,3.12,3.09,4.92,3.31,8.03,.05,21.19-22.25,43.95-42.85,69.06-60.5,22.98-16.16,47.12-30.79,73.03-41.74,19.94-8.43,40.68-15.05,61.32-21.68,13.7-4.4,27.81-7.62,41.83-10.94,5.8-1.37,11.84-1.93,17.8-2.36,22.23-1.58,44.46-3.91,66.71-4.09,17.91-.14,35.94,1.69,53.75,4,12.77,1.66,25.35,5.16,37.82,8.55,15.02,4.09,30.19,8.05,44.66,13.68,16.36,6.36,32.42,13.78,47.92,22.03,47.33,25.22,87.45,59.26,121.11,101.01,27.57,34.19,49.7,71.58,64.79,112.81,7.33,20.03,13.15,40.7,18.44,61.38,6.88,26.86,9.53,54.44,9.7,82.11,.13,22.28-.39,44.63-4.63,66.67-3.33,17.28-6.09,34.69-10.11,51.81-2.53,10.77-6.89,21.1-10.47,31.62-12.18,35.84-30.2,68.68-51.68,99.69-15.7,22.67-34.43,42.76-53.84,62.29-84.35,84.86-168.61,169.81-252.83,254.8-83.63,84.4-167.19,168.85-250.72,253.35-16.46,16.65-35.65,29.09-58.04,35.52-14.75,4.23-30.01,7.08-45.76,5.08-14.35-1.82-28.7-3.28-42.41-8.32-13.86-5.09-27.1-11.71-37.67-21.86-26.43-25.38-52.24-51.41-78.05-77.43-85.2-85.9-170.29-171.9-255.41-257.89-66.47-67.15-133.23-134.01-199.19-201.66-25.76-26.42-47.32-56.33-63.81-89.54-7.89-15.89-15.9-31.84-22.16-48.4-6.12-16.21-10.23-33.19-14.94-49.91-2.34-8.31-4.28-16.75-5.95-25.21-1.29-6.5-2.17-13.12-2.72-19.72-1.49-17.91-2.7-35.84-4.32-57.92ZM400.06,104.47c-15.79,1.88-34.74,3.01-53.2,6.61-22.81,4.45-44.82,12.05-66,21.92-32.87,15.32-61.56,36.54-86.56,62.46-26.52,27.49-48.48,58.44-62.68,94.17-6.61,16.63-12.56,33.64-17.1,50.93-4.37,16.63-6.19,33.84-7.89,51.08-1.83,18.56-.69,36.87,.98,55.15,1.94,21.34,6.83,42.19,13.23,62.74,8.32,26.74,20.3,51.61,35.39,75.09,15.96,24.84,36.22,45.99,56.91,66.81,84.2,84.77,168.34,169.6,252.45,254.47,80.82,81.56,161.54,163.21,242.43,244.7,3.66,3.69,8.14,7.15,12.9,9.04,14.36,5.69,26.49,1.3,37.09-9.43,57.49-58.22,115.06-116.36,172.65-174.47,111.55-112.56,223.15-225.08,334.71-337.64,23.82-24.03,44.03-50.75,59.73-80.8,11.68-22.36,20.37-45.86,25.76-70.45,3.27-14.89,6.04-30,7.42-45.16,1.63-17.83,2.96-35.83,.19-53.74-2.66-17.22-4.35-34.67-8.37-51.58-3.55-14.94-9.37-29.38-14.79-43.82-9.01-23.98-21.69-46.08-37.24-66.34-26.22-34.17-57.65-62.63-95.29-83.94-20.06-11.36-41.44-19.38-63.46-26.05-18.97-5.75-38.47-8.69-58.01-10.02-17.44-1.18-35.15-.35-52.59,1.2-16.46,1.46-32.92,4.21-49.05,7.84-23.4,5.26-45.66,14.17-67.14,24.83-29.71,14.74-57.02,33-80.79,56.26-19.77,19.34-39.39,38.84-59.06,58.3-7.31,7.23-15.28,13.37-25.59,15.66-18.93,4.2-36.45,1.96-50.84-12.19-16.99-16.71-33.52-33.88-50.48-50.62-18.04-17.81-37.06-34.43-58.59-48.06-18.74-11.86-38.22-22.06-58.8-30.42-25.37-10.31-51.61-17.22-78.59-20.98-15.38-2.14-31.05-2.29-49.71-3.55Z"/><path class="cls-1" d="M400.06,104.47c18.67,1.26,34.33,1.4,49.71,3.55,26.98,3.76,53.22,10.67,78.59,20.98,20.58,8.36,40.06,18.56,58.8,30.42,21.53,13.63,40.55,30.25,58.59,48.06,16.96,16.74,33.49,33.91,50.48,50.62,14.39,14.15,31.92,16.4,50.84,12.19,10.31-2.29,18.28-8.42,25.59-15.66,19.66-19.45,39.28-38.95,59.06-58.3,23.78-23.26,51.08-41.53,80.79-56.26,21.49-10.66,43.74-19.57,67.14-24.83,16.13-3.63,32.59-6.38,49.05-7.84,17.45-1.55,35.16-2.38,52.59-1.2,19.54,1.33,39.04,4.27,58.01,10.02,22.02,6.67,43.4,14.69,63.46,26.05,37.64,21.31,69.07,49.77,95.29,83.94,15.54,20.26,28.23,42.36,37.24,66.34,5.42,14.44,11.24,28.88,14.79,43.82,4.01,16.9,5.7,34.36,8.37,51.58,2.77,17.92,1.44,35.91-.19,53.74-1.38,15.16-4.15,30.27-7.42,45.16-5.4,24.59-14.09,48.09-25.76,70.45-15.7,30.05-35.91,56.77-59.73,80.8-111.56,112.56-223.15,225.08-334.71,337.64-57.59,58.12-115.16,116.25-172.65,174.47-10.6,10.74-22.73,15.12-37.09,9.43-4.76-1.89-9.24-5.35-12.9-9.04-80.89-81.49-161.61-163.14-242.43-244.7-84.1-84.87-168.24-169.7-252.45-254.47-20.69-20.83-40.95-41.98-56.91-66.81-15.09-23.48-27.07-48.35-35.39-75.09-6.39-20.55-11.29-41.4-13.23-62.74-1.66-18.28-2.8-36.59-.98-55.15,1.7-17.24,3.52-34.44,7.89-51.08,4.54-17.29,10.49-34.3,17.1-50.93,14.21-35.74,36.16-66.68,62.68-94.17,25.01-25.92,53.7-47.14,86.56-62.46,21.18-9.87,43.19-17.47,66-21.92,18.46-3.6,37.41-4.74,53.2-6.61Z"/></g></g></svg>