<?xml version="1.0" encoding="UTF-8"?><svg id="Layer_2" xmlns="http://www.w3.org/2000/svg" viewBox="0 0 1464.7 1267.15"><defs><style>.cls-1{fill:#fefefd;}.cls-2{fill:#9a9999;}</style></defs><g id="Layer_3"><g><path class="cls-1" d="M0,409.16c1.67-17.22,3.3-38.46,5.94-59.57,1.69-13.47,3.71-27.11,7.66-40.04,6.92-22.65,14.19-45.36,23.64-67.03,8.73-20.02,19.64-39.24,31.14-57.85,17.76-28.74,39.87-54.1,64.58-77.16,24.21-22.6,50.77-42.19,79.8-57.93,17.88-9.69,36.91-17.48,55.97-24.7,16.56-6.27,33.68-11.32,50.9-15.5,19.55-4.75,39.61-6.76,59.73-8.38,22.38-1.81,44.67-.98,66.85,1.08,17.46,1.63,34.86,4.85,52,8.67,17.92,3.99,35.87,8.51,53.13,14.69,18.84,6.74,37.27,14.92,55.25,23.76,46.54,22.88,86.34,54.93,122.01,92.28,3.24,3.39,5.1,3.43,8.36,.02,21.08-22.11,43.73-42.58,68.69-60.17,22.97-16.19,47.12-30.79,73.02-41.76,19.93-8.44,40.66-15.1,61.3-21.74,13.7-4.41,27.81-7.62,41.83-10.93,5.96-1.41,12.16-2.02,18.29-2.46,21.73-1.58,43.47-3.93,65.21-4.06,18.42-.11,36.98,1.52,55.24,4.09,15.38,2.16,30.42,6.75,45.6,10.31,22.73,5.34,44.46,13.65,65.28,24.01,16.03,7.98,31.6,16.99,46.82,26.44,36.17,22.44,66.56,51.43,93.41,84.29,25.66,31.4,45.86,66.08,61.49,103.39,9.56,22.82,16.81,46.45,22.07,70.69,5.89,27.1,9.3,54.49,9.48,82.16,.14,22.29-.36,44.63-4.59,66.67-3.31,17.28-6.07,34.69-10.1,51.81-2.57,10.93-6.99,21.42-10.61,32.1-12.18,35.85-30.24,68.67-51.73,99.66-15.72,22.66-34.47,42.73-53.88,62.25-84.35,84.86-168.6,169.82-252.82,254.81-83.63,84.39-167.2,168.85-250.73,253.33-16.47,16.66-35.72,29.03-58.1,35.43-16.24,4.64-32.97,6.46-50.28,4.63-26.26-2.78-50.4-10.26-71.3-26.57-7.84-6.12-15.06-13.13-22.08-20.21-67.59-68.16-135.05-136.44-202.6-204.64-48.2-48.66-96.51-97.19-144.7-145.86-55.8-56.36-111.87-112.47-167.12-169.37-25.71-26.47-47.34-56.32-63.87-89.51-7.91-15.88-15.89-31.84-22.15-48.41-6.13-16.2-10.26-33.18-14.99-49.89-2.26-7.98-4.1-16.1-5.7-24.24-1.34-6.83-2.41-13.76-3-20.69-1.52-17.91-2.71-35.84-4.33-57.89ZM407.36,103.2c-.03,.43-.07,.87-.1,1.3-20.14-1.46-39.99,1.56-59.43,5.68-18.45,3.91-36.81,9.33-54.31,16.32-29.53,11.79-56.22,28.66-80.16,49.86-25.27,22.39-46.76,47.81-64.28,76.64-10.49,17.27-18.98,35.55-25.83,54.47-6.89,19.06-12.19,38.69-14.61,58.87-1.92,15.98-4.43,32.13-3.91,48.11,.66,20.17,3.44,40.36,6.59,60.34,3.8,24.08,11.73,47.12,21.85,69.25,15.59,34.1,36.9,64.37,63.26,91.04,45.35,45.87,90.71,91.73,136.12,137.54,118.74,119.79,237.51,239.56,356.28,359.32,7.63,7.69,15.17,15.48,23.09,22.86,5.09,4.75,11.34,7.15,18.52,7.63,12.36,.83,21.14-5.18,29.31-13.43,58.82-59.5,117.75-118.9,176.64-178.33,110.63-111.64,221.3-223.25,331.85-334.96,22.98-23.22,42.19-49.33,57.35-78.33,10.75-20.57,19.13-42.09,24.47-64.68,2.97-12.58,5.81-25.27,7.36-38.07,1.94-15.98,3.84-32.18,3.27-48.19-.62-17.68-3.21-35.42-6.5-52.84-3.03-16.1-6.96-32.23-12.54-47.61-11.29-31.11-26.57-60.28-47.55-86.17-26.71-32.98-58.04-60.52-95.45-80.85-18.77-10.2-38.63-17.66-59.12-23.67-21.17-6.21-42.85-9.71-64.75-10.55-16.88-.65-33.93,.41-50.77,2.08-15.48,1.53-31.01,3.95-46.11,7.66-22.96,5.64-44.95,14.33-66.16,24.87-26.69,13.27-51.64,29.26-73.37,49.69-22.21,20.88-43.65,42.59-65.35,64.02-7.56,7.47-15.63,13.85-26.36,16.25-18.7,4.18-35.82,1.8-50.02-11.99-12.55-12.19-24.91-24.59-37-37.24-35.79-37.45-75.64-69.08-123.98-89.14-22.8-9.47-46.11-17.35-70.38-21.46-19.12-3.24-38.61-4.29-57.94-6.3Z"/><path class="cls-2" d="M407.36,103.2c19.33,2.02,38.82,3.06,57.94,6.3,24.27,4.12,47.58,12,70.38,21.46,48.33,20.06,88.19,51.7,123.98,89.14,12.09,12.65,24.45,25.05,37,37.24,14.2,13.79,31.33,16.17,50.02,11.99,10.73-2.4,18.8-8.79,26.36-16.25,21.7-21.42,43.14-43.14,65.35-64.02,21.73-20.43,46.68-36.42,73.37-49.69,21.21-10.54,43.2-19.23,66.16-24.87,15.1-3.71,30.63-6.13,46.11-7.66,16.84-1.67,33.89-2.73,50.77-2.08,21.9,.84,43.58,4.33,64.75,10.55,20.48,6.01,40.35,13.47,59.12,23.67,37.4,20.33,68.74,47.88,95.45,80.85,20.97,25.89,36.25,55.06,47.55,86.17,5.58,15.38,9.51,31.51,12.54,47.61,3.28,17.42,5.88,35.16,6.5,52.84,.56,16.02-1.34,32.21-3.27,48.19-1.55,12.8-4.39,25.5-7.36,38.07-5.34,22.59-13.72,44.11-24.47,64.68-15.16,29-34.37,55.1-57.35,78.33-110.56,111.71-221.22,223.32-331.85,334.96-58.89,59.43-117.82,118.83-176.64,178.33-8.16,8.26-16.95,14.27-29.31,13.43-7.18-.49-13.42-2.89-18.52-7.63-7.92-7.38-15.46-15.17-23.09-22.86-118.77-119.77-237.54-239.53-356.28-359.32-45.41-45.81-90.77-91.67-136.12-137.54-26.37-26.67-47.67-56.94-63.26-91.04-10.12-22.13-18.05-45.17-21.85-69.25-3.15-19.98-5.93-40.17-6.59-60.34-.53-15.98,1.99-32.13,3.91-48.11,2.42-20.18,7.72-39.81,14.61-58.87,6.85-18.93,15.33-37.2,25.83-54.47,17.52-28.83,39.01-54.25,64.28-76.64,23.94-21.2,50.63-38.07,80.16-49.86,17.51-6.99,35.87-12.41,54.31-16.32,19.44-4.12,39.3-7.14,59.43-5.68,.03-.43,.07-.87,.1-1.3Z"/></g></g></svg>