<?xml version="1.0" encoding="UTF-8"?><svg id="Layer_2" xmlns="http://www.w3.org/2000/svg" viewBox="0 0 1476 1476"><defs><style>.cls-1{fill:#fefefe;}.cls-2{fill:#fe7601;}</style></defs><g id="Layer_3"><g><path class="cls-1" d="M737.96,0c407.78,0,738.11,330.51,738.04,738.46-.07,407.76-330.94,737.77-739.46,737.54C329.56,1475.77-.37,1144.53,0,736.54,.37,330.03,331.03,0,737.96,0Zm-1.16,510.17c-1.04-1.57-1.77-3.13-2.89-4.3-14.08-14.68-29.79-27.36-47.4-37.56-17.57-10.18-35.95-18.53-55.95-22.71-12.13-2.53-24.27-5.89-36.54-6.68-21.69-1.39-43.38-1.16-64.88,4.05-15.96,3.87-31.41,8.58-46.07,15.99-14.4,7.28-28.1,15.73-40.15,26.37-20.72,18.29-38.8,38.8-51.85,63.57-9.04,17.15-16.2,35-20.84,53.64-3.3,13.27-4.86,27.13-5.69,40.81-1.66,27.3,.19,54.39,9.91,80.32,4.82,12.85,9.86,25.69,15.82,38.04,8.99,18.63,21.67,34.9,35.72,49.96,17.48,18.74,35.53,36.96,53.38,55.36,63.59,65.57,127.22,131.1,190.78,196.71,14.76,15.24,28.73,31.84,51.21,35.44,10.05,1.61,20.71,2.6,30.64,1.01,16.72-2.67,30.66-11.88,42.46-24.02,19.5-20.05,38.95-40.14,58.37-60.27,65.07-67.4,130.09-134.85,195.18-202.23,14.09-14.59,26.11-30.58,36.09-48.32,11.01-19.59,19.23-40.22,23.65-62.06,3.11-15.37,3.98-31.25,5.02-46.96,.47-7.21-1.12-14.55-1.66-21.85-.27-3.65,.3-7.46-.52-10.95-2.92-12.34-5.55-24.83-9.66-36.79-4.57-13.3-9.86-26.48-16.24-39.01-7.36-14.43-17.28-27.27-28.04-39.52-16.84-19.19-36.32-34.86-58.66-47.04-13.63-7.42-27.95-13.33-43.05-16.87-10.6-2.49-21.41-4.79-32.24-5.45-17.41-1.05-34.92-1.61-52.25,1.88-6.96,1.4-14.22,1.63-20.99,3.6-11.66,3.39-23.13,7.46-34.51,11.71-19.7,7.36-37.06,18.74-53.1,32.17-8.13,6.81-15.96,14-25.01,21.98Z"/><path class="cls-2" d="M736.8,510.17c9.05-7.98,16.88-15.17,25.01-21.98,16.04-13.43,33.4-24.82,53.1-32.17,11.38-4.25,22.86-8.32,34.51-11.71,6.77-1.97,14.03-2.2,20.99-3.6,17.32-3.49,34.84-2.93,52.25-1.88,10.82,.65,21.64,2.96,32.24,5.45,15.1,3.54,29.43,9.45,43.05,16.87,22.34,12.17,41.82,27.85,58.66,47.04,10.76,12.26,20.68,25.09,28.04,39.52,6.38,12.52,11.68,25.7,16.24,39.01,4.11,11.96,6.74,24.45,9.66,36.79,.83,3.5,.25,7.3,.52,10.95,.54,7.29,2.14,14.63,1.66,21.85-1.03,15.71-1.91,31.59-5.02,46.96-4.42,21.83-12.64,42.47-23.65,62.06-9.98,17.75-22,33.74-36.09,48.32-65.09,67.39-130.11,134.83-195.18,202.23-19.42,20.12-38.87,40.22-58.37,60.27-11.8,12.14-25.74,21.34-42.46,24.02-9.93,1.59-20.59,.6-30.64-1.01-22.48-3.6-36.45-20.2-51.21-35.44-63.55-65.61-127.19-131.14-190.78-196.71-17.85-18.4-35.89-36.62-53.38-55.36-14.04-15.05-26.72-31.32-35.72-49.96-5.96-12.35-11-25.18-15.82-38.04-9.72-25.93-11.57-53.02-9.91-80.32,.83-13.69,2.39-27.54,5.69-40.81,4.63-18.64,11.8-36.48,20.84-53.64,13.05-24.77,31.13-45.28,51.85-63.57,12.05-10.63,25.76-19.09,40.15-26.37,14.66-7.41,30.11-12.12,46.07-15.99,21.51-5.21,43.19-5.44,64.88-4.05,12.28,.79,24.41,4.15,36.54,6.68,20,4.18,38.38,12.52,55.95,22.71,17.61,10.21,33.32,22.88,47.4,37.56,1.13,1.18,1.86,2.73,2.89,4.3Zm-163.08-8.8c-.07,.53-.14,1.07-.21,1.6-16.4-1.03-32.15,2.43-47.3,7.97-14.29,5.22-27.53,12.91-39.34,22.49-13.94,11.31-25.95,24.44-35.7,39.79-11.95,18.83-19.43,39.32-21.58,61.09-2.92,29.54-1.47,58.89,11.81,86.61,7.78,16.25,17.2,31.15,29.67,44.09,41.45,43.01,82.92,85.99,124.46,128.91,44.42,45.9,88.92,91.72,133.4,137.56,6.81,7.02,11.79,7.07,18.61,.01,35.06-36.25,70.06-72.56,105.1-108.82,47.06-48.69,94.17-97.33,141.19-146.05,11.5-11.92,23.37-23.6,31.87-38.03,8.68-14.74,15.43-30.18,18.67-47.18,2.75-14.44,5.34-28.88,3.66-43.52-1.45-12.61-3.75-25.19-6.72-37.53-2.02-8.4-4.76-17.01-9.11-24.39-7.26-12.32-15.57-24.12-24.36-35.43-9.15-11.77-21.17-20.62-34.18-27.72-9.17-5-19.09-8.62-28.62-12.99-10.75-4.93-22.36-6.01-33.81-6.78-24.3-1.62-47.78,2.64-70.28,12.17-13.15,5.57-25.77,12.16-36.31,21.84-13.83,12.71-27.19,25.92-40.53,39.15-6.66,6.61-13.87,11.91-23.51,12.63-10.25,.77-18.75-3.47-25.92-10.34-7.19-6.9-14.07-14.13-20.98-21.32-23.25-24.2-49.4-43.52-83.38-49.62-12.18-2.19-24.4-4.14-36.61-6.2Z"/><path class="cls-1" d="M573.72,501.36c12.2,2.06,24.43,4.02,36.61,6.2,33.99,6.11,60.13,25.43,83.38,49.62,6.91,7.19,13.79,14.42,20.98,21.32,7.17,6.87,15.67,11.11,25.92,10.34,9.64-.72,16.85-6.03,23.51-12.63,13.34-13.23,26.7-26.44,40.53-39.15,10.53-9.68,23.16-16.27,36.31-21.84,22.49-9.53,45.98-13.79,70.28-12.17,11.44,.76,23.06,1.85,33.81,6.78,9.52,4.37,19.45,7.98,28.62,12.99,13.01,7.1,25.03,15.95,34.18,27.72,8.79,11.31,17.1,23.11,24.36,35.43,4.35,7.38,7.09,15.99,9.11,24.39,2.97,12.34,5.27,24.92,6.72,37.53,1.69,14.63-.9,29.08-3.66,43.52-3.24,17-9.99,32.44-18.67,47.18-8.5,14.43-20.37,26.11-31.87,38.03-47.02,48.73-94.13,97.36-141.19,146.05-35.05,36.26-70.04,72.57-105.1,108.82-6.82,7.06-11.8,7.01-18.61-.01-44.48-45.84-88.98-91.66-133.4-137.56-41.54-42.92-83.01-85.91-124.46-128.91-12.47-12.94-21.89-27.85-29.67-44.09-13.27-27.73-14.73-57.07-11.81-86.61,2.15-21.77,9.62-42.26,21.58-61.09,9.75-15.36,21.76-28.48,35.7-39.79,11.81-9.58,25.05-17.27,39.34-22.49,15.15-5.54,30.9-8.99,47.3-7.97,.07-.53,.14-1.07,.21-1.6Z"/></g></g></svg>