<?xml version="1.0" encoding="UTF-8"?><svg id="Layer_2" xmlns="http://www.w3.org/2000/svg" viewBox="0 0 1462.78 776.68"><defs><style>.cls-1{fill:#fefcfc;}.cls-2{fill:#fefdfd;}.cls-3{fill:#fdfbfb;}.cls-4{fill:#fdfafa;}.cls-5{fill:#ff8105;}</style></defs><g id="Layer_5"><g><path class="cls-5" d="M592.36,406.91c-1.24,.64-2.26,1.03-3.14,1.63-2.76,1.9-5.41,3.98-8.23,5.8-2.14,1.38-4.44,2.51-6.7,3.69-2.9,1.52-6.03,2.1-9.27,2.02-12.26-.28-23.21-4.09-32.54-12.19-7.35-6.38-12.04-14.37-14.59-23.74-1.76-6.44-1.9-12.82-1.09-19.46,.96-7.89,3.45-15.27,5.94-22.68,3.02-8.97,5.56-18.05,6.84-27.42,.95-6.95,1.78-13.94,1.05-21.02-.47-4.61-.69-9.25-.81-13.89-.12-4.83,.68-9.56,2.37-14.11,4.52-12.17,11.68-22.68,20.33-32.26,7.58-8.4,20.32-11.01,31.33-6.57,6.19,2.49,11.52,6.21,15.84,11.33,.72,.85,1.4,1.76,2.2,2.53,1.16,1.11,2.65,1.06,3.88-.04,.35-.32,.66-.69,.98-1.05,2.57-2.83,5.14-5.67,7.72-8.5,.32-.35,.64-.72,1.01-1.03,3.61-3.11,4.83-7.05,3.85-11.64-.73-3.44-1.6-6.85-2.49-10.24-.67-2.54-2.42-4.13-4.92-4.76-2.94-.73-5.91-1.36-8.89-1.92-1.88-.36-3.8-.55-5.71-.75-2.75-.28-5.31-1.13-7.73-2.42-7.37-3.92-14.23-8.57-20.42-14.2-2.13-1.93-4.32-3.8-6.61-5.53-7.09-5.36-12.22-12.14-15.08-20.56-.77-2.25-1.28-4.64-1.56-7-1-8.41-2.01-16.83-2.7-25.27-.62-7.52-.27-15.03,1.58-22.39,2.4-9.55,7.41-17.56,14.07-24.73,4.44-4.78,9.52-8.38,15.5-10.99,11.29-4.94,22.65-9.69,34.74-12.3,6.56-1.41,13.23-2.26,19.84-3.45,10.86-1.94,21.64-4.29,32.31-7.1,4.64-1.22,9.3-2.36,13.92-3.65,12.68-3.53,24.66-8.85,36.48-14.54,2.15-1.03,4.14-2.42,6.12-3.77,9.9-6.79,20.18-12.95,30.87-18.41,1.4-.72,2.94-1.27,4.48-1.61,13.57-3.01,27.2-3.87,40.92-1.01,2.97,.62,5.97,1.1,8.95,1.7,5.64,1.12,10.57,3.64,14.57,7.8,2.88,2.99,5.7,6.05,8.4,9.2,1.99,2.32,3.39,5,4.41,7.91,2.31,6.52,3.92,13.19,4.43,20.08,.27,3.65,.32,7.35,.03,11-.57,7.33-1.28,14.65-2.24,21.94-1.19,9.05-3.15,17.95-6.2,26.58-1.18,3.34-2.79,6.44-4.81,9.35-1.94,2.8-4.18,5.31-7.29,6.78-3.11,1.47-4.01,3.93-3.62,7.08,.32,2.54,.73,5.06,1.13,7.59,.84,5.37,1.58,10.75,2.59,16.09,.89,4.7,2.08,9.35,3.18,14.02,.95,4,3.32,6.84,7.09,8.52,6.59,2.94,12.74,6.67,18.83,10.51,4.05,2.56,7.99,5.3,11.94,8.02,2.9,1.99,5.76,4.03,8.58,6.13,8.28,6.16,15.09,13.77,21.4,21.86,4.35,5.57,8.02,11.56,11.28,17.8,3.6,6.9,5.79,14.28,5.62,22.1-.18,7.97,1.44,15.53,3.87,23.04,2.7,8.36,5.16,16.8,7.66,25.23,1.7,5.72,2.43,11.56,2.13,17.54-.08,1.59-.09,3.2,.02,4.79,.12,1.76,1.05,2.51,2.86,2.49,.79-.01,1.59-.13,2.38-.25,.61-.09,1.21-.26,1.81-.4,.57,1.14-.33,1.51-.83,1.97-1.07,.96-2.28,1.77-3.31,2.76-2.21,2.1-2.51,3.61-1.23,6.44,.66,1.45,1.43,2.87,2.34,4.18,5.38,7.75,10.8,15.46,16.22,23.18,3.4,4.84,6.81,9.67,10.21,14.51,.28,.39,.53,.8,.76,1.22,2.2,3.92,2.02,6.75-.86,10.14-2.39,2.81-5.04,5.36-8.16,7.36-.94,.6-1.92,1.16-2.85,1.78-5.94,3.97-8.18,9.58-7.17,16.55,.27,1.89,.86,3.74,1.16,5.63,.58,3.65,.3,7.05-3.18,9.37-.52,.35-.91,.9-1.33,1.37-.96,1.06-1.21,2.22-.44,3.5,.41,.68,.87,1.34,1.26,2.04,2.26,4.01,1.57,8.15-1.89,11.18-.72,.63-1.5,1.2-2.33,1.69-5.09,3-7.54,7.73-8.36,13.32-.56,3.84-1.46,7.52-3.14,11.01-5.37,11.2-14.26,17.94-26.39,20.04-8.18,1.42-16.5,2.01-24.84,1.96-3.53-.02-7.02,.29-10.45,1.18-4.96,1.29-9.08,3.88-12.34,7.82-3.7,4.47-6.49,9.5-8.83,14.78-4.19,9.46-6.48,19.38-7.03,29.7-.43,7.98-.8,15.96-1.21,23.95-.17,3.19-.35,6.38-.58,9.57-.15,2.01,.31,3.8,1.52,5.41,1.82,2.43,3.47,5.01,5.51,7.24,5.16,5.64,8.72,12.04,11.3,19.27,6.39,17.92,13.21,35.68,19.85,53.5,4.63,12.43,9.15,24.91,13.93,37.29,4.44,11.48,9.19,22.84,13.76,34.27,2.14,5.34,4.22,10.71,6.24,16.1,.61,1.63,1.05,3.37,1.3,5.09,.32,2.25-.8,3.79-3.07,4.04-1.54,.16-3.24,.06-4.68-.46-4.81-1.72-9.62-3.5-14.28-5.58-18.41-8.2-36.42-17.25-53.59-27.8-11.16-6.85-21.93-14.36-32.63-21.93-9.26-6.55-18.07-13.73-27.25-20.39-8.41-6.1-17.05-11.87-25.57-17.81-4.06-2.83-8.19-5.59-12.09-8.64-7.15-5.62-14.98-9.76-23.85-11.87-5.15-1.23-10.35-1.87-15.67-1.35-4.14,.4-8.24,.81-12.34,1.66-6.46,1.34-12.52,3.83-18.75,5.85-1.82,.59-3.61,1.33-5.47,1.77-2.92,.69-4.74-1.04-4.16-4,.4-2.03,1.08-4.01,1.81-5.96,3.36-8.98,6.73-17.96,10.18-26.91,3.74-9.69,7.54-19.36,11.35-29.03,2.52-6.39,5.11-12.76,7.62-19.16,.89-2.26,1.9-4.43,3.73-6.07,4.82-4.32,7.3-10.02,9.39-15.92,.75-2.1,1.23-4.31,1.7-6.49,2.49-11.58,4.31-23.24,5.14-35.08,.64-9.16,.11-18.15-1.15-27.22-1.26-9.06-11.31-16.72-19.1-16.78-4.33-.03-8.6-.64-12.83-1.58-6.37-1.41-12.21-4.06-17.1-8.29-5.01-4.32-10.5-7.81-16.18-11.1-1.94-1.12-3.87-2.26-5.74-3.48-3.11-2.02-5.88-4.47-8.03-7.49-5.3-7.45-9.92-15.3-12.56-24.13-1.1-3.67-1.9-7.43-2.89-11.14-.28-1.03-.74-2.02-1.23-3.33Z"/><path class="cls-2" d="M99.81,661.76c-4.66,.87-19.05,.89-23.12,.15-.79-1.65-.43-3.44-.43-5.16-.03-17.91-.04-35.82,0-53.74,0-4.66-.5-9.24-1.52-13.78-.83-3.66-2.41-6.94-4.58-9.94-3.89-5.38-9.14-8.28-15.83-8.58-6.75-.3-13.03,1.03-18.59,5.05-6.6,4.78-10.12,11.43-11.29,19.32-.56,3.78-.78,7.64-.79,11.47-.08,16.63-.03,33.26-.04,49.9,0,5.98-.02,5.99-6.2,5.99-4.32,0-8.64,.02-12.95-.01-1.24,0-2.48-.18-3.95-.29-.11-1.64-.26-3.04-.28-4.44-.45-48.43-.19-101.85,.54-106.21,2.21-.71,4.6-.32,6.94-.38,2.56-.06,5.12-.02,7.68-.01,2.37,.01,4.75,.05,6.69,.07,1.55,1.29,1.5,2.59,1.53,3.87,.05,2.24,.02,4.48,.17,6.71,.04,.67,.58,1.31,1.08,2.36,3.57-3.52,6.42-7.13,10.39-9.58,3.85-2.38,7.86-4.28,12.22-5.36,4.52-1.11,9.17-1.48,13.81-1.14,4.63,.34,9.15,1.18,13.47,3.08,4.16,1.83,7.83,4.33,11.17,7.32,3.47,3.1,6.04,6.96,8.08,10.86,1.64,.31,1.9-.82,2.4-1.54,2.59-3.65,5.18-7.25,8.68-10.17,7.15-5.96,15.39-8.99,24.58-9.55,4.79-.29,9.59-.13,14.33,.88,11.66,2.47,20.31,8.94,25.85,19.51,4.24,8.09,6.13,16.82,6.18,25.87,.13,21.43,.05,42.86,.03,64.29,0,1.09-.17,2.19-.26,3.23-4.21,.88-19.24,.85-23.08-.03-.83-1.63-.46-3.41-.46-5.13-.03-17.91-.02-35.82-.02-53.74,0-4.48-.08-8.97-1.18-13.34-1.93-7.65-5.79-14.13-13.43-16.97-9.69-3.6-19.19-3.04-27.52,3.89-4.06,3.37-6.4,7.92-7.85,12.92-1.89,6.5-2.46,13.18-2.45,19.92,.01,15.67,0,31.35,0,47.02,0,1.75,0,3.49,0,5.41Z"/><path class="cls-1" d="M1438.83,565.31c1.13-4.8,.02-9.13,.85-13.46,.54-.23,1.1-.67,1.67-.67,6.55-.04,13.1-.01,19.66,.02,.29,0,.58,.23,1.15,.46,.17,.73,.49,1.62,.56,2.53,.11,1.27,.05,2.56,.05,3.83,0,32.61,0,65.23,0,97.84,0,1.9-.07,3.79-.1,5.65-.9,.36-1.48,.78-2.07,.79-6.39,.05-12.78,.05-19.18,0-.58,0-1.15-.43-2.04-.78v-14.57c-1.37-.76-1.77,.08-2.2,.67-7.78,10.54-18.65,15.79-31.23,17.78-8.56,1.35-16.91-.17-24.92-3.26-13.13-5.07-22.47-14.39-28.93-26.69-2.46-4.67-4.21-9.7-5.17-14.9-3.03-16.43-1.47-32.33,7.51-46.71,10.8-17.3,26.6-26.18,47.21-25.98,6.28,.06,12.37,1.05,18.27,3.38,6.69,2.64,12.35,6.61,16.97,12.1,.46,.55,1.02,1.02,1.96,1.95Zm.47,41.96c-.38-13.1-5.51-22.96-15.36-30.3-6.51-4.86-13.94-7.22-22.01-6.77-11.31,.63-20.2,6.02-26.13,15.54-8.66,13.91-8.64,28.25,.09,42.09,8.1,12.84,24.89,20.18,41.15,12.8,14.47-6.57,21.59-18.37,22.26-33.36Z"/><path class="cls-1" d="M490.47,615.96c-29.04,0-57.94,0-87.08,0-.15,1.28-.5,2.23-.31,3.04,2.64,11.11,9.32,18.79,20.11,22.52,7.54,2.61,15.27,3.05,23.13,.94,7.65-2.05,14.12-5.84,19.24-11.89,.82-.97,1.65-1.92,2.56-2.98,3.62,.68,6.4,2.98,9.57,4.38,3.04,1.35,6.06,2.78,9,4.65-1.03,2.94-2.62,5.3-4.37,7.54-6.04,7.71-13.6,13.37-22.78,16.93-9.08,3.52-18.46,5.35-28.15,4.52-14.09-1.21-26.67-6.02-36.83-16.35-10.74-10.92-15.78-24.17-16.57-39.22-.27-5.1-.17-10.23,.76-15.3,3.29-17.89,12.48-31.55,28.71-40.17,14.44-7.67,29.76-8.74,45.14-4.4,17.18,4.85,29.07,16.09,35.31,33.05,3.68,9.99,4.1,20.28,3.2,30.73-.04,.46-.29,.91-.66,2.01Zm-23.09-19.55c.85-2.92-.65-5.2-1.56-7.51-2.85-7.26-7.7-12.77-14.96-15.96-7.25-3.18-14.77-3.61-22.5-2.39-10.56,1.66-18.22,7.26-22.91,16.83-1.37,2.8-2.61,5.73-2.22,8.98,4.01,.55,51.13,.85,61.92,.41,.77-.03,1.52-.24,2.22-.36Z"/><path class="cls-3" d="M1197.85,661.64c-.98,.3-1.72,.72-2.47,.72-6.23,.03-12.47,.01-18.7-.06-.58,0-1.16-.44-1.82-.71-.77-4.12,.08-8.3-.55-12.21-1.31-.6-1.72,.22-2.18,.8-7.31,9.18-17.4,13.23-28.5,15.21-3.11,.55-6.4,.51-9.56,.23-7.89-.69-15.36-2.81-22.07-7.26-6.34-4.21-10.66-10.02-13.8-16.81-3.42-7.38-4.82-15.24-4.86-23.3-.11-20.63-.04-41.26-.04-61.89,0-.48-.01-.96,0-1.44,.15-3.26,.67-3.81,4.03-3.84,5.44-.04,10.87-.02,16.31,0,.79,0,1.57,.14,2.41,.22,1.01,1.87,.66,3.81,.66,5.68,.03,13.75,.02,27.5,.02,41.26,0,4.96-.04,9.91,.02,14.87,.05,4.82,.62,9.54,2.41,14.09,3.99,10.15,11.59,15.88,22.22,16.19,11.8,.34,24.18-4.63,30.13-17.48,1.48-3.19,2.57-6.55,2.72-10.12,.12-3.03,.28-6.07,.29-9.11,.03-16.47,0-32.94,.02-49.41,0-1.74,.08-3.49,.12-5.3,.76-.34,1.32-.8,1.88-.8,6.55-.04,13.11-.02,19.66,0,.29,0,.59,.22,1.18,.45,.16,.72,.45,1.61,.52,2.51,.1,1.27,.04,2.56,.04,3.84,0,32.62,0,65.24,0,97.87,0,1.9-.06,3.81-.09,5.78Z"/><path class="cls-1" d="M1313.74,631.94c5.69,4.38,10.24,9.51,15.34,14.09-.72,1.92-1.98,3.17-3.22,4.35-6.6,6.31-14.4,10.53-23.17,12.98-6.98,1.96-14.1,3-21.34,2.29-21.57-2.13-38.64-11.62-49.37-30.98-4.09-7.37-6.04-15.48-6.51-23.87-.4-7.21,.19-14.36,2.23-21.36,3.82-13.1,11.3-23.53,22.64-31.08,15.67-10.43,32.82-12.75,50.95-8.68,9.23,2.07,17.19,6.79,24.23,13.03,1.29,1.14,2.31,2.57,3.38,3.77-1.98,3.43-11.38,12.42-15.36,14.78-.68-.51-1.48-1.02-2.18-1.64-8.81-7.84-19.11-10.52-30.67-9.03-10.95,1.41-19.51,6.74-25.72,15.78-5.12,7.45-6.55,15.87-5.63,24.71,1.8,17.34,14.84,28.49,28.7,31.41,12.83,2.7,24.01-.48,33.78-9.08,.47-.41,.99-.76,1.94-1.49Z"/><path class="cls-1" d="M1068.8,567.58c-4.97,4.68-9.83,9.26-14.84,13.98-1.1-.78-2.06-1.31-2.84-2.03-11.54-10.67-29.92-12.42-43.83-4.64-9.17,5.13-15.21,12.89-17.45,23.45-1.95,9.15-.84,17.79,3.47,26.02,4.37,8.34,11.33,13.72,20.04,16.89,8.42,3.06,16.95,2.96,25.39,.05,4.73-1.63,8.92-4.25,12.68-7.57,.69-.61,1.49-1.09,2.4-1.74,5.33,4.54,10.22,9.29,14.93,14.1-.55,2.05-1.93,3.2-3.18,4.4-6.6,6.33-14.44,10.49-23.2,12.91-6.66,1.84-13.45,2.86-20.38,2.28-20.85-1.75-37.66-10.53-48.84-28.65-4.86-7.88-7.3-16.67-7.74-25.92-.4-8.35,.23-16.58,3.04-24.58,4.05-11.54,11-20.87,21.08-27.73,15.85-10.78,33.28-13.29,51.76-9.08,9.05,2.06,16.89,6.66,23.83,12.78,1.07,.95,1.99,2.07,2.92,3.16,.29,.34,.36,.86,.78,1.93Z"/><path class="cls-4" d="M268.22,490.31c3.4-.83,16.26-.99,22.05-.24,.24,.62,.66,1.32,.75,2.07,.15,1.26,.11,2.55,.11,3.83,0,53.4,0,106.81,0,160.21,0,1.44,.01,2.88-.14,4.31-.11,1.04-.86,1.68-1.91,1.85-.47,.08-.95,.09-1.43,.09-5.6,0-11.19,.03-16.79-.03-.93,0-1.85-.34-2.63-.5-.19-.31-.29-.43-.35-.57-.07-.14-.17-.3-.17-.44-.04-55.8-.08-111.6-.11-167.4,0-.64,.02-1.28,.08-1.92,.03-.31,.14-.62,.25-.92,.05-.14,.2-.24,.3-.36Z"/><path class="cls-4" d="M349.57,490.12c.24,.67,.65,1.38,.72,2.12,.13,1.43,.08,2.87,.08,4.31,0,53.09,0,106.17,0,159.26,0,6.26,.63,6.75-6.52,6.64-4.16-.06-8.31,.02-12.47-.03-1.39-.02-2.79-.22-4.1-.34-.53-4.2-.56-167.17-.06-171.76,.64-.2,1.36-.61,2.09-.61,6.23-.05,12.47-.03,18.71,0,.46,0,.92,.23,1.56,.4Z"/><path class="cls-2" d="M209.45,662.15c0-36.41,0-72.32,.02-108.23,0-.76,.35-1.53,.52-2.23,3.48-.75,15.07-.92,21.87-.3,.28,.87,.76,1.86,.9,2.89,.17,1.26,.06,2.55,.06,3.83,0,32.57-.02,65.15,.01,97.72,0,6.84-.05,6.65-6.55,6.61-4.15-.03-8.3,.01-12.45-.02-1.25,0-2.5-.15-4.38-.27Z"/><path class="cls-3" d="M221.54,524.95c-5.02,.2-9.2-1.39-12.57-5.02-6.59-7.1-4.41-18.91,4.26-23.19,5.05-2.49,10.15-2.69,15.27-.37,5.61,2.55,8.62,6.97,8.78,13.15,.16,6.16-2.54,10.76-7.99,13.66-2.44,1.29-5.05,1.98-7.74,1.77Z"/></g></g></svg>