<?xml version="1.0" encoding="UTF-8"?><svg id="Layer_2" xmlns="http://www.w3.org/2000/svg" viewBox="0 0 1476.1 1476.16"><defs><style>.cls-1{fill:#fefefe;}.cls-2{fill:#fe7501;}</style></defs><g id="Layer_3"><g><path class="cls-1" d="M738.06,0c407.78,0,738.12,330.59,738.04,738.59-.08,407.79-331,737.82-739.56,737.57C329.55,1475.91-.39,1144.61,0,736.57,.39,330.02,331.09,0,738.06,0Zm-244.49,638.67c-18.52-.25-33.08,2.67-46.99,9.26-34.16,16.2-52.66,43.78-58.06,80.45-2.1,14.3,.74,28.63,4.94,42.28,5.14,16.71,14.78,30.97,27.82,42.74,12.48,11.27,27.06,18.58,43.24,23.15,12,3.39,24.1,2.48,36.19,2.07,5.72-.19,11.7-1.03,17.04-3,11.89-4.4,24.09-8.78,33.33-17.89,5.63-5.54,9.59-4.2,15.7-.53,28.87,17.36,58.18,34,87.28,50.99,21.53,12.57,42.94,25.36,64.48,37.93,25.81,15.06,51.68,30,77.56,44.94,3.02,1.74,4.17,3.97,3.31,7.44-.87,3.52-1.77,7.1-2.03,10.7-.87,11.88,.95,23.39,4.25,34.87,4.81,16.73,13.86,30.72,26.34,42.47,10.67,10.04,22.86,17.4,37.16,22,10.17,3.27,20.52,4.88,30.67,4.97,12.92,.12,25.86-2.19,38.01-8.04,31.6-15.2,51.56-39.7,57.84-74,3.4-18.61,1.06-37.57-6.9-55.1-12.65-27.87-33.56-46.51-63.41-54.61-13.42-3.64-26.73-5.21-40.8-2.74-18.09,3.18-34.1,10-47.89,21.99-2.68,2.33-4.82,2.72-7.93,.74-6.83-4.35-13.86-8.38-20.87-12.45-30.41-17.65-60.87-35.22-91.27-52.9-17.56-10.22-34.97-20.7-52.54-30.9-22.98-13.34-46.03-26.54-69.12-39.7-2.82-1.61-4.06-3.18-3.32-6.69,2.79-13.32,2.77-26.74-.02-40.04-.72-3.42,.48-4.85,3.03-6.33,25.7-14.91,51.38-29.87,77.07-44.82,28.13-16.37,56.26-32.72,84.37-49.12,23.67-13.81,47.27-27.75,71.03-41.4,1.47-.84,4.81-.4,6.11,.76,13.43,11.96,28.98,19.29,46.54,22.87,23.05,4.7,44.85,1.03,65.52-9.56,13.08-6.71,24.41-15.46,33.44-27.58,10.04-13.46,17.15-28.11,19.48-44.39,3.02-21.14,.84-41.99-8.9-61.59-7.45-15-17.61-27.82-31.5-37.02-8.43-5.58-18-9.53-27.27-13.76-9.94-4.53-20.74-6.22-31.46-5.58-11.32,.67-22.62,2.16-33.58,6.09-12.52,4.5-23.68,11.02-33.58,19.64-12.15,10.58-20.85,23.65-26.75,38.74-6.98,17.88-8.19,36.1-4.32,54.72,.82,3.93-.22,6.22-3.52,8.13-21.15,12.24-42.26,24.55-63.38,36.84-28.11,16.37-56.21,32.74-84.31,49.12-28.11,16.39-56.19,32.83-84.4,49.03-1.43,.82-4.46,.24-6.01-.79-4.41-2.93-8.11-7.03-12.69-9.59-16.17-9.03-33.03-16.03-48.92-14.83Z"/><path class="cls-2" d="M493.58,638.67c15.89-1.2,32.76,5.79,48.92,14.83,4.58,2.56,8.28,6.66,12.69,9.59,1.55,1.03,4.58,1.61,6.01,.79,28.22-16.2,56.29-32.64,84.4-49.03,28.1-16.38,56.2-32.75,84.31-49.12,21.12-12.3,42.23-24.6,63.38-36.84,3.3-1.91,4.34-4.2,3.52-8.13-3.86-18.62-2.66-36.84,4.32-54.72,5.89-15.09,14.6-28.15,26.75-38.74,9.9-8.62,21.05-15.14,33.58-19.64,10.96-3.93,22.25-5.42,33.58-6.09,10.71-.64,21.52,1.05,31.46,5.58,9.27,4.23,18.84,8.17,27.27,13.76,13.89,9.2,24.04,22.02,31.5,37.02,9.74,19.6,11.92,40.46,8.9,61.59-2.33,16.28-9.44,30.93-19.48,44.39-9.03,12.12-20.36,20.87-33.44,27.58-20.67,10.6-42.47,14.27-65.52,9.56-17.56-3.58-33.11-10.91-46.54-22.87-1.3-1.16-4.64-1.6-6.11-.76-23.76,13.65-47.36,27.58-71.03,41.4-28.11,16.4-56.24,32.75-84.37,49.12-25.68,14.95-51.36,29.9-77.07,44.82-2.55,1.48-3.75,2.91-3.03,6.33,2.79,13.3,2.81,26.73,.02,40.04-.73,3.51,.5,5.08,3.32,6.69,23.08,13.16,46.14,26.37,69.12,39.7,17.57,10.2,34.98,20.68,52.54,30.9,30.39,17.69,60.85,35.26,91.27,52.9,7.01,4.07,14.04,8.1,20.87,12.45,3.11,1.98,5.25,1.59,7.93-.74,13.8-11.99,29.8-18.81,47.89-21.99,14.07-2.47,27.37-.91,40.8,2.74,29.85,8.1,50.76,26.74,63.41,54.61,7.96,17.53,10.3,36.49,6.9,55.1-6.28,34.31-26.24,58.8-57.84,74-12.15,5.85-25.1,8.15-38.01,8.04-10.15-.09-20.5-1.7-30.67-4.97-14.29-4.6-26.49-11.96-37.16-22-12.48-11.75-21.53-25.73-26.34-42.47-3.3-11.47-5.12-22.99-4.25-34.87,.26-3.6,1.15-7.18,2.03-10.7,.86-3.47-.29-5.69-3.31-7.44-25.88-14.94-51.75-29.88-77.56-44.94-21.54-12.57-42.94-25.36-64.48-37.93-29.1-16.99-58.4-33.63-87.28-50.99-6.11-3.67-10.07-5.02-15.7,.53-9.25,9.11-21.45,13.48-33.33,17.89-5.33,1.98-11.31,2.81-17.04,3-12.09,.41-24.19,1.32-36.19-2.07-16.18-4.57-30.76-11.88-43.24-23.15-13.03-11.77-22.68-26.02-27.82-42.74-4.2-13.65-7.04-27.99-4.94-42.28,5.4-36.67,23.9-64.25,58.06-80.45,13.91-6.6,28.47-9.52,46.99-9.26Z"/></g></g></svg>