<?xml version="1.0" encoding="UTF-8"?><svg id="Layer_2" xmlns="http://www.w3.org/2000/svg" viewBox="0 0 1475.64 1475.9"><defs><style>.cls-1{fill:#fefefe;}.cls-2{fill:#fe7701;}</style></defs><g id="Layer_3"><g><path class="cls-1" d="M792.05,1474.53c-214.58,11.83-404.62-53.04-563.04-202.88C100.99,1150.56,25.24,1000.94,5.44,825.82-20.48,596.65,46.36,395.87,204.62,228.12,328.43,96.88,482.2,21.18,661.98,3.94c224.45-21.53,421.03,45.09,585.16,200.09,126.74,119.69,201.78,267.77,222.5,441.08,24.84,207.78-27.24,395.56-159.73,558.11-132.74,162.86-306.5,250.86-517.86,271.31Zm-52.59-799.71c-2.56-2.33-3.93-3.49-5.2-4.75-22.51-22.46-45.01-44.93-67.5-67.41-41.32-41.3-82.67-82.56-123.9-123.94-7.16-7.19-15.72-12.16-25.37-13.81-17.74-3.04-37.12,4.87-46.08,20.81-2.46,4.37-4.65,9.14-5.71,14-1.26,5.84-2.85,12.44-1.33,17.88,3.06,10.91,9.27,20.33,17.57,28.58,62.99,62.64,125.74,125.54,188.63,188.29,3.13,3.13,2.84,5.24-.17,8.24-61.42,61.26-122.78,122.58-184.12,183.91-8.63,8.63-16.77,17.13-20.64,29.68-3.19,10.35-1.42,19.28,2.45,28.01,5.81,13.12,15.23,22.45,30.11,25.98,10.53,2.5,20.13,1.26,29.91-2.43,7.09-2.68,12.23-7.81,17.39-12.97,62.71-62.67,125.41-125.36,188.12-188.03,4.64-4.64,4.92-4.63,9.56,0,7.31,7.3,14.62,14.61,21.93,21.91,55.4,55.38,110.85,110.72,166.17,166.18,13.76,13.8,29.15,20.36,48.91,14.83,13.12-3.67,21.97-11.72,27.69-23.42,8.13-16.64,3.89-39-9.82-52.56-39.41-38.94-78.48-78.22-117.67-117.39-24.71-24.69-49.38-49.43-74.11-74.1-2.41-2.4-3.72-4.07-.51-7.26,63.52-63.3,126.94-126.69,190.29-190.15,3.6-3.61,7.03-7.6,9.64-11.96,6.66-11.11,7.63-23.03,4.68-35.67-3.83-16.38-20.43-31.34-37.13-32.7-15.28-1.25-28.29,3.35-39.2,14.28-57.59,57.68-115.28,115.25-172.86,172.93-7.38,7.39-14.34,15.19-21.73,23.05Z"/><path class="cls-2" d="M739.45,674.82c7.39-7.86,14.35-15.66,21.73-23.05,57.58-57.68,115.27-115.25,172.86-172.93,10.91-10.93,23.92-15.53,39.2-14.28,16.7,1.37,33.3,16.33,37.13,32.7,2.96,12.64,1.98,24.56-4.68,35.67-2.61,4.35-6.03,8.35-9.64,11.96-63.36,63.46-126.77,126.85-190.29,190.15-3.2,3.19-1.89,4.86,.51,7.26,24.73,24.67,49.4,49.41,74.11,74.1,39.19,39.16,78.26,78.45,117.67,117.39,13.71,13.55,17.96,35.91,9.82,52.56-5.72,11.7-14.57,19.75-27.69,23.42-19.76,5.53-35.15-1.03-48.91-14.83-55.32-55.47-110.77-110.8-166.17-166.18-7.31-7.31-14.62-14.61-21.93-21.91-4.64-4.63-4.92-4.63-9.56,0-62.7,62.68-125.4,125.36-188.12,188.03-5.16,5.16-10.3,10.29-17.39,12.97-9.77,3.69-19.37,4.93-29.91,2.43-14.88-3.53-24.3-12.86-30.11-25.98-3.87-8.73-5.63-17.66-2.45-28.01,3.86-12.55,12.01-21.05,20.64-29.68,61.34-61.34,122.7-122.66,184.12-183.91,3.01-3,3.3-5.11,.17-8.24-62.89-62.75-125.64-125.64-188.63-188.29-8.29-8.25-14.51-17.67-17.57-28.58-1.52-5.44,.06-12.04,1.33-17.88,1.05-4.86,3.25-9.63,5.71-14,8.97-15.93,28.34-23.85,46.08-20.81,9.65,1.65,18.21,6.62,25.37,13.81,41.23,41.38,82.59,82.65,123.9,123.94,22.49,22.48,44.99,44.95,67.5,67.41,1.27,1.26,2.64,2.42,5.2,4.75Z"/></g></g></svg>